<mxfile host="app.diagrams.net" agent="Mozilla/5.0 (Windows NT 10.0; Win64; x64) AppleWebKit/537.36 (KHTML, like Gecko) Chrome/139.0.0.0 Safari/537.36" version="28.1.1">
  <diagram name="P치gina-1" id="wDFeBbPLa3ZNPYZFciww">
    <mxGraphModel grid="1" page="1" gridSize="10" guides="1" tooltips="1" connect="1" arrows="1" fold="1" pageScale="1" pageWidth="827" pageHeight="1169" math="0" shadow="0">
      <root>
        <mxCell id="0" />
        <mxCell id="1" parent="0" />
        <mxCell id="IQV9grqqn6wyKBqTV6xh-2" value="" style="rounded=0;whiteSpace=wrap;html=1;" vertex="1" parent="1">
          <mxGeometry x="-920" y="-1010" width="720" height="560" as="geometry" />
        </mxCell>
        <mxCell id="IQV9grqqn6wyKBqTV6xh-3" value="&lt;span style=&quot;font-size: 16px;&quot;&gt;&lt;font style=&quot;vertical-align: inherit;&quot; dir=&quot;auto&quot;&gt;&lt;font style=&quot;vertical-align: inherit;&quot; dir=&quot;auto&quot;&gt;Administrador&lt;/font&gt;&lt;/font&gt;&lt;/span&gt;&lt;div&gt;&lt;span style=&quot;font-size: 16px;&quot;&gt;&lt;br&gt;&lt;/span&gt;&lt;/div&gt;" style="shape=umlActor;verticalLabelPosition=bottom;verticalAlign=top;html=1;outlineConnect=0;" vertex="1" parent="1">
          <mxGeometry x="-1010" y="-820" width="30" height="60" as="geometry" />
        </mxCell>
        <mxCell id="IQV9grqqn6wyKBqTV6xh-4" value="&lt;span style=&quot;font-size: 16px;&quot;&gt;&lt;font style=&quot;vertical-align: inherit;&quot; dir=&quot;auto&quot;&gt;&lt;font style=&quot;vertical-align: inherit;&quot; dir=&quot;auto&quot;&gt;&lt;font style=&quot;vertical-align: inherit;&quot; dir=&quot;auto&quot;&gt;&lt;font style=&quot;vertical-align: inherit;&quot; dir=&quot;auto&quot;&gt;Usuario&amp;nbsp;&lt;/font&gt;&lt;/font&gt;&lt;/font&gt;&lt;/font&gt;&lt;/span&gt;" style="shape=umlActor;verticalLabelPosition=bottom;verticalAlign=top;html=1;outlineConnect=0;" vertex="1" parent="1">
          <mxGeometry x="-131" y="-800" width="30" height="60" as="geometry" />
        </mxCell>
        <mxCell id="IQV9grqqn6wyKBqTV6xh-5" value="&lt;span style=&quot;font-size: 16px; text-wrap-mode: nowrap;&quot;&gt;&lt;font style=&quot;vertical-align: inherit;&quot; dir=&quot;auto&quot;&gt;&lt;font style=&quot;vertical-align: inherit;&quot; dir=&quot;auto&quot;&gt;Iniciar sesi칩n&lt;/font&gt;&lt;/font&gt;&lt;/span&gt;" style="ellipse;whiteSpace=wrap;html=1;" vertex="1" parent="1">
          <mxGeometry x="-615" y="-720" width="90" height="70" as="geometry" />
        </mxCell>
        <mxCell id="IQV9grqqn6wyKBqTV6xh-6" value="&lt;span style=&quot;font-size: 16px; text-wrap-mode: nowrap;&quot;&gt;&lt;font style=&quot;vertical-align: inherit;&quot; dir=&quot;auto&quot;&gt;&lt;font style=&quot;vertical-align: inherit;&quot; dir=&quot;auto&quot;&gt;&lt;font style=&quot;vertical-align: inherit;&quot; dir=&quot;auto&quot;&gt;&lt;font style=&quot;vertical-align: inherit;&quot; dir=&quot;auto&quot;&gt;Crear publicaci칩n&lt;/font&gt;&lt;/font&gt;&lt;/font&gt;&lt;/font&gt;&lt;/span&gt;&lt;div&gt;&lt;span style=&quot;font-size: 16px; text-wrap-mode: nowrap;&quot;&gt;&lt;br&gt;&lt;/span&gt;&lt;/div&gt;" style="ellipse;whiteSpace=wrap;html=1;" vertex="1" parent="1">
          <mxGeometry x="-645" y="-880" width="140" height="70" as="geometry" />
        </mxCell>
        <mxCell id="IQV9grqqn6wyKBqTV6xh-7" value="&lt;span style=&quot;font-size: 16px; text-wrap-mode: nowrap;&quot;&gt;&lt;font style=&quot;vertical-align: inherit;&quot; dir=&quot;auto&quot;&gt;&lt;font style=&quot;vertical-align: inherit;&quot; dir=&quot;auto&quot;&gt;&lt;font style=&quot;vertical-align: inherit;&quot; dir=&quot;auto&quot;&gt;&lt;font style=&quot;vertical-align: inherit;&quot; dir=&quot;auto&quot;&gt;publicaci칩n&lt;/font&gt;&lt;/font&gt;&lt;/font&gt;&lt;/font&gt;&lt;/span&gt;&lt;div&gt;&lt;span style=&quot;font-size: 16px; text-wrap-mode: nowrap;&quot;&gt;&lt;br&gt;&lt;/span&gt;&lt;/div&gt;" style="ellipse;whiteSpace=wrap;html=1;" vertex="1" parent="1">
          <mxGeometry x="-605" y="-570" width="90" height="70" as="geometry" />
        </mxCell>
        <mxCell id="IQV9grqqn6wyKBqTV6xh-8" value="&lt;span style=&quot;font-size: 16px; text-wrap-mode: nowrap;&quot;&gt;&lt;font style=&quot;vertical-align: inherit;&quot; dir=&quot;auto&quot;&gt;&lt;font style=&quot;vertical-align: inherit;&quot; dir=&quot;auto&quot;&gt;Reportar contenido&lt;/font&gt;&lt;/font&gt;&lt;/span&gt;" style="ellipse;whiteSpace=wrap;html=1;" vertex="1" parent="1">
          <mxGeometry x="-827" y="-810" width="140" height="110" as="geometry" />
        </mxCell>
        <mxCell id="IQV9grqqn6wyKBqTV6xh-10" value="&lt;div&gt;&lt;br&gt;&lt;/div&gt;&lt;div&gt;&lt;span style=&quot;font-size: 16px; text-wrap-mode: nowrap;&quot;&gt;&lt;font style=&quot;vertical-align: inherit;&quot; dir=&quot;auto&quot;&gt;&lt;font style=&quot;vertical-align: inherit;&quot; dir=&quot;auto&quot;&gt;&lt;font style=&quot;vertical-align: inherit;&quot; dir=&quot;auto&quot;&gt;&lt;font style=&quot;vertical-align: inherit;&quot; dir=&quot;auto&quot;&gt;Eliminar contenido&amp;nbsp;&lt;/font&gt;&lt;/font&gt;&lt;/font&gt;&lt;/font&gt;&lt;/span&gt;&lt;/div&gt;" style="ellipse;whiteSpace=wrap;html=1;" vertex="1" parent="1">
          <mxGeometry x="-650" y="-970" width="150" height="70" as="geometry" />
        </mxCell>
        <mxCell id="IQV9grqqn6wyKBqTV6xh-12" value="" style="endArrow=none;html=1;rounded=0;fontSize=12;startSize=8;endSize=8;curved=1;entryX=0.5;entryY=1;entryDx=0;entryDy=0;exitX=0.49;exitY=0.144;exitDx=0;exitDy=0;exitPerimeter=0;" edge="1" parent="1" source="IQV9grqqn6wyKBqTV6xh-19" target="IQV9grqqn6wyKBqTV6xh-5">
          <mxGeometry width="50" height="50" relative="1" as="geometry">
            <mxPoint x="-460" y="-710" as="sourcePoint" />
            <mxPoint x="-410" y="-760" as="targetPoint" />
          </mxGeometry>
        </mxCell>
        <mxCell id="IQV9grqqn6wyKBqTV6xh-13" value="" style="endArrow=none;html=1;rounded=0;fontSize=12;startSize=8;endSize=8;curved=1;exitX=0.586;exitY=0.2;exitDx=0;exitDy=0;entryX=0.5;entryY=1;entryDx=0;entryDy=0;exitPerimeter=0;" edge="1" parent="1" source="IQV9grqqn6wyKBqTV6xh-17" target="IQV9grqqn6wyKBqTV6xh-5">
          <mxGeometry width="50" height="50" relative="1" as="geometry">
            <mxPoint x="-530" y="-760" as="sourcePoint" />
            <mxPoint x="-480" y="-810" as="targetPoint" />
            <Array as="points">
              <mxPoint x="-554" y="-730" />
              <mxPoint x="-564" y="-700" />
            </Array>
          </mxGeometry>
        </mxCell>
        <mxCell id="IQV9grqqn6wyKBqTV6xh-14" value="" style="endArrow=none;html=1;rounded=0;fontSize=12;startSize=8;endSize=8;curved=1;entryX=0.5;entryY=1;entryDx=0;entryDy=0;exitX=0.492;exitY=0.033;exitDx=0;exitDy=0;exitPerimeter=0;" edge="1" parent="1" source="IQV9grqqn6wyKBqTV6xh-15" target="IQV9grqqn6wyKBqTV6xh-10">
          <mxGeometry width="50" height="50" relative="1" as="geometry">
            <mxPoint x="-700" y="-730" as="sourcePoint" />
            <mxPoint x="-650" y="-780" as="targetPoint" />
          </mxGeometry>
        </mxCell>
        <mxCell id="IQV9grqqn6wyKBqTV6xh-16" value="" style="endArrow=none;html=1;rounded=0;fontSize=12;startSize=8;endSize=8;curved=1;entryX=0.5;entryY=1;entryDx=0;entryDy=0;exitX=0.5;exitY=0;exitDx=0;exitDy=0;" edge="1" parent="1" source="IQV9grqqn6wyKBqTV6xh-8" target="IQV9grqqn6wyKBqTV6xh-15">
          <mxGeometry width="50" height="50" relative="1" as="geometry">
            <mxPoint x="-749" y="-716" as="sourcePoint" />
            <mxPoint x="-735" y="-870" as="targetPoint" />
          </mxGeometry>
        </mxCell>
        <mxCell id="IQV9grqqn6wyKBqTV6xh-15" value="&lt;font style=&quot;vertical-align: inherit;&quot; dir=&quot;auto&quot;&gt;&lt;font style=&quot;vertical-align: inherit;&quot; dir=&quot;auto&quot;&gt;extends&lt;/font&gt;&lt;/font&gt;" style="text;html=1;align=center;verticalAlign=middle;resizable=0;points=[];autosize=1;strokeColor=none;fillColor=none;fontSize=16;" vertex="1" parent="1">
          <mxGeometry x="-730" y="-890" width="80" height="30" as="geometry" />
        </mxCell>
        <mxCell id="IQV9grqqn6wyKBqTV6xh-18" value="" style="endArrow=none;html=1;rounded=0;fontSize=12;startSize=8;endSize=8;curved=1;entryX=0.49;entryY=-0.078;entryDx=0;entryDy=0;entryPerimeter=0;exitX=0.5;exitY=1;exitDx=0;exitDy=0;" edge="1" parent="1" source="IQV9grqqn6wyKBqTV6xh-6" target="IQV9grqqn6wyKBqTV6xh-17">
          <mxGeometry width="50" height="50" relative="1" as="geometry">
            <mxPoint x="-571" y="-800" as="sourcePoint" />
            <mxPoint x="-370" y="-775" as="targetPoint" />
          </mxGeometry>
        </mxCell>
        <mxCell id="IQV9grqqn6wyKBqTV6xh-17" value="&lt;font style=&quot;vertical-align: inherit;&quot; dir=&quot;auto&quot;&gt;&lt;font style=&quot;vertical-align: inherit;&quot; dir=&quot;auto&quot;&gt;include&lt;/font&gt;&lt;/font&gt;" style="text;html=1;align=center;verticalAlign=middle;resizable=0;points=[];autosize=1;strokeColor=none;fillColor=none;fontSize=16;" vertex="1" parent="1">
          <mxGeometry x="-605" y="-780" width="70" height="30" as="geometry" />
        </mxCell>
        <mxCell id="IQV9grqqn6wyKBqTV6xh-20" value="" style="endArrow=none;html=1;rounded=0;fontSize=12;startSize=8;endSize=8;curved=1;entryX=0.586;entryY=0.978;entryDx=0;entryDy=0;exitX=0.5;exitY=0;exitDx=0;exitDy=0;entryPerimeter=0;" edge="1" parent="1" source="IQV9grqqn6wyKBqTV6xh-7" target="IQV9grqqn6wyKBqTV6xh-19">
          <mxGeometry width="50" height="50" relative="1" as="geometry">
            <mxPoint x="-470" y="-715" as="sourcePoint" />
            <mxPoint x="-370" y="-775" as="targetPoint" />
          </mxGeometry>
        </mxCell>
        <mxCell id="IQV9grqqn6wyKBqTV6xh-19" value="&lt;font style=&quot;vertical-align: inherit;&quot; dir=&quot;auto&quot;&gt;&lt;font style=&quot;vertical-align: inherit;&quot; dir=&quot;auto&quot;&gt;include&lt;/font&gt;&lt;/font&gt;" style="text;html=1;align=center;verticalAlign=middle;resizable=0;points=[];autosize=1;strokeColor=none;fillColor=none;fontSize=16;" vertex="1" parent="1">
          <mxGeometry x="-605" y="-650" width="70" height="30" as="geometry" />
        </mxCell>
        <mxCell id="IQV9grqqn6wyKBqTV6xh-21" value="" style="endArrow=none;html=1;rounded=0;fontSize=12;startSize=8;endSize=8;curved=1;entryX=0;entryY=0.3333333333333333;entryDx=0;entryDy=0;exitX=1;exitY=0.5;exitDx=0;exitDy=0;entryPerimeter=0;" edge="1" parent="1" source="IQV9grqqn6wyKBqTV6xh-30" target="IQV9grqqn6wyKBqTV6xh-4">
          <mxGeometry width="50" height="50" relative="1" as="geometry">
            <mxPoint x="-320" y="-909" as="sourcePoint" />
            <mxPoint x="-204" y="-920" as="targetPoint" />
          </mxGeometry>
        </mxCell>
        <mxCell id="IQV9grqqn6wyKBqTV6xh-22" value="" style="endArrow=none;html=1;rounded=0;fontSize=12;startSize=8;endSize=8;curved=1;entryX=0;entryY=0.3333333333333333;entryDx=0;entryDy=0;exitX=1;exitY=0.5;exitDx=0;exitDy=0;entryPerimeter=0;" edge="1" parent="1" source="IQV9grqqn6wyKBqTV6xh-29" target="IQV9grqqn6wyKBqTV6xh-4">
          <mxGeometry width="50" height="50" relative="1" as="geometry">
            <mxPoint x="-340" y="-829" as="sourcePoint" />
            <mxPoint x="-224" y="-840" as="targetPoint" />
          </mxGeometry>
        </mxCell>
        <mxCell id="IQV9grqqn6wyKBqTV6xh-23" value="" style="endArrow=none;html=1;rounded=0;fontSize=12;startSize=8;endSize=8;curved=1;exitX=1;exitY=0.5;exitDx=0;exitDy=0;" edge="1" parent="1" source="IQV9grqqn6wyKBqTV6xh-28" target="IQV9grqqn6wyKBqTV6xh-4">
          <mxGeometry width="50" height="50" relative="1" as="geometry">
            <mxPoint x="-310" y="-679" as="sourcePoint" />
            <mxPoint x="-194" y="-690" as="targetPoint" />
          </mxGeometry>
        </mxCell>
        <mxCell id="IQV9grqqn6wyKBqTV6xh-24" value="" style="endArrow=none;html=1;rounded=0;fontSize=12;startSize=8;endSize=8;curved=1;exitX=1;exitY=0.5;exitDx=0;exitDy=0;" edge="1" parent="1" source="IQV9grqqn6wyKBqTV6xh-27" target="IQV9grqqn6wyKBqTV6xh-4">
          <mxGeometry width="50" height="50" relative="1" as="geometry">
            <mxPoint x="-320" y="-549" as="sourcePoint" />
            <mxPoint x="-204" y="-560" as="targetPoint" />
          </mxGeometry>
        </mxCell>
        <mxCell id="IQV9grqqn6wyKBqTV6xh-25" value="" style="endArrow=none;html=1;rounded=0;fontSize=12;startSize=8;endSize=8;curved=1;entryX=0;entryY=0.5;entryDx=0;entryDy=0;exitX=1;exitY=0.3333333333333333;exitDx=0;exitDy=0;exitPerimeter=0;" edge="1" parent="1" source="IQV9grqqn6wyKBqTV6xh-26" target="IQV9grqqn6wyKBqTV6xh-10">
          <mxGeometry width="50" height="50" relative="1" as="geometry">
            <mxPoint x="-820" y="-919" as="sourcePoint" />
            <mxPoint x="-704" y="-930" as="targetPoint" />
          </mxGeometry>
        </mxCell>
        <mxCell id="IQV9grqqn6wyKBqTV6xh-31" value="" style="endArrow=none;html=1;rounded=0;fontSize=12;startSize=8;endSize=8;curved=1;entryX=0;entryY=0.3333333333333333;entryDx=0;entryDy=0;exitX=1;exitY=0.5;exitDx=0;exitDy=0;entryPerimeter=0;" edge="1" parent="1" source="IQV9grqqn6wyKBqTV6xh-10" target="IQV9grqqn6wyKBqTV6xh-30">
          <mxGeometry width="50" height="50" relative="1" as="geometry">
            <mxPoint x="-500" y="-935" as="sourcePoint" />
            <mxPoint x="-131" y="-780" as="targetPoint" />
          </mxGeometry>
        </mxCell>
        <mxCell id="IQV9grqqn6wyKBqTV6xh-30" value="&lt;font style=&quot;vertical-align: inherit;&quot; dir=&quot;auto&quot;&gt;&lt;font style=&quot;vertical-align: inherit;&quot; dir=&quot;auto&quot;&gt;include&lt;/font&gt;&lt;/font&gt;" style="text;html=1;align=center;verticalAlign=middle;resizable=0;points=[];autosize=1;strokeColor=none;fillColor=none;fontSize=16;" vertex="1" parent="1">
          <mxGeometry x="-413" y="-900" width="70" height="30" as="geometry" />
        </mxCell>
        <mxCell id="IQV9grqqn6wyKBqTV6xh-32" value="" style="endArrow=none;html=1;rounded=0;fontSize=12;startSize=8;endSize=8;curved=1;entryX=0;entryY=0.3333333333333333;entryDx=0;entryDy=0;exitX=1;exitY=0.5;exitDx=0;exitDy=0;entryPerimeter=0;" edge="1" parent="1" source="IQV9grqqn6wyKBqTV6xh-6" target="IQV9grqqn6wyKBqTV6xh-29">
          <mxGeometry width="50" height="50" relative="1" as="geometry">
            <mxPoint x="-505" y="-845" as="sourcePoint" />
            <mxPoint x="-131" y="-780" as="targetPoint" />
          </mxGeometry>
        </mxCell>
        <mxCell id="IQV9grqqn6wyKBqTV6xh-29" value="&lt;font style=&quot;vertical-align: inherit;&quot; dir=&quot;auto&quot;&gt;&lt;font style=&quot;vertical-align: inherit;&quot; dir=&quot;auto&quot;&gt;include&lt;/font&gt;&lt;/font&gt;" style="text;html=1;align=center;verticalAlign=middle;resizable=0;points=[];autosize=1;strokeColor=none;fillColor=none;fontSize=16;" vertex="1" parent="1">
          <mxGeometry x="-430" y="-840" width="70" height="30" as="geometry" />
        </mxCell>
        <mxCell id="IQV9grqqn6wyKBqTV6xh-33" value="" style="endArrow=none;html=1;rounded=0;fontSize=12;startSize=8;endSize=8;curved=1;exitX=1;exitY=0.5;exitDx=0;exitDy=0;" edge="1" parent="1" source="IQV9grqqn6wyKBqTV6xh-5" target="IQV9grqqn6wyKBqTV6xh-28">
          <mxGeometry width="50" height="50" relative="1" as="geometry">
            <mxPoint x="-525" y="-685" as="sourcePoint" />
            <mxPoint x="-131" y="-767" as="targetPoint" />
          </mxGeometry>
        </mxCell>
        <mxCell id="IQV9grqqn6wyKBqTV6xh-28" value="&lt;font style=&quot;vertical-align: inherit;&quot; dir=&quot;auto&quot;&gt;&lt;font style=&quot;vertical-align: inherit;&quot; dir=&quot;auto&quot;&gt;include&lt;/font&gt;&lt;/font&gt;" style="text;html=1;align=center;verticalAlign=middle;resizable=0;points=[];autosize=1;strokeColor=none;fillColor=none;fontSize=16;" vertex="1" parent="1">
          <mxGeometry x="-430" y="-720" width="70" height="30" as="geometry" />
        </mxCell>
        <mxCell id="IQV9grqqn6wyKBqTV6xh-34" value="" style="endArrow=none;html=1;rounded=0;fontSize=12;startSize=8;endSize=8;curved=1;exitX=1;exitY=0.5;exitDx=0;exitDy=0;" edge="1" parent="1" source="IQV9grqqn6wyKBqTV6xh-7" target="IQV9grqqn6wyKBqTV6xh-27">
          <mxGeometry width="50" height="50" relative="1" as="geometry">
            <mxPoint x="-515" y="-535" as="sourcePoint" />
            <mxPoint x="-131" y="-761" as="targetPoint" />
          </mxGeometry>
        </mxCell>
        <mxCell id="IQV9grqqn6wyKBqTV6xh-27" value="&lt;font style=&quot;vertical-align: inherit;&quot; dir=&quot;auto&quot;&gt;&lt;font style=&quot;vertical-align: inherit;&quot; dir=&quot;auto&quot;&gt;include&lt;/font&gt;&lt;/font&gt;" style="text;html=1;align=center;verticalAlign=middle;resizable=0;points=[];autosize=1;strokeColor=none;fillColor=none;fontSize=16;" vertex="1" parent="1">
          <mxGeometry x="-420" y="-614" width="70" height="30" as="geometry" />
        </mxCell>
        <mxCell id="IQV9grqqn6wyKBqTV6xh-35" value="" style="endArrow=none;html=1;rounded=0;fontSize=12;startSize=8;endSize=8;curved=1;entryX=0;entryY=0.5;entryDx=0;entryDy=0;exitX=1;exitY=0.3333333333333333;exitDx=0;exitDy=0;exitPerimeter=0;" edge="1" parent="1" source="IQV9grqqn6wyKBqTV6xh-3" target="IQV9grqqn6wyKBqTV6xh-26">
          <mxGeometry width="50" height="50" relative="1" as="geometry">
            <mxPoint x="-980" y="-800" as="sourcePoint" />
            <mxPoint x="-650" y="-935" as="targetPoint" />
          </mxGeometry>
        </mxCell>
        <mxCell id="IQV9grqqn6wyKBqTV6xh-26" value="&lt;font style=&quot;vertical-align: inherit;&quot; dir=&quot;auto&quot;&gt;&lt;font style=&quot;vertical-align: inherit;&quot; dir=&quot;auto&quot;&gt;include&lt;/font&gt;&lt;/font&gt;" style="text;html=1;align=center;verticalAlign=middle;resizable=0;points=[];autosize=1;strokeColor=none;fillColor=none;fontSize=16;" vertex="1" parent="1">
          <mxGeometry x="-870" y="-880" width="70" height="30" as="geometry" />
        </mxCell>
      </root>
    </mxGraphModel>
  </diagram>
</mxfile>
